<?xml version="1.0"?>
<svg xmlns="http://www.w3.org/2000/svg" viewBox="0 0 64 64" width="512" height="512"><g id="Outline"><g><path d="M40,2a21.808,21.808,0,0,0-17.531,8.743,1,1,0,1,0,1.595,1.206A19.823,19.823,0,0,1,40,4,20.023,20.023,0,0,1,60,24V56H39a1,1,0,0,0,0,2H60v3a1,1,0,0,0,2,0V24A22.025,22.025,0,0,0,40,2Z"/><path d="M42,9H38a1,1,0,0,0-1,1v3H33a1,1,0,0,0-1,1v4a1,1,0,0,0,1,1h4v9a1,1,0,0,0,1,1h4a1,1,0,0,0,1-1V19h4a1,1,0,0,0,1-1V14a1,1,0,0,0-1-1H43V10A1,1,0,0,0,42,9Zm4,6v2H42a1,1,0,0,0-1,1v9H39V18a1,1,0,0,0-1-1H34V15h4a1,1,0,0,0,1-1V11h2v3a1,1,0,0,0,1,1Z"/><path d="M51,33H42a1,1,0,0,0,0,2h9a1,1,0,0,0,0-2Z"/><path d="M53,44a1,1,0,0,0-1-1H31a1,1,0,0,0,0,2H52A1,1,0,0,0,53,44Z"/><path d="M51,40a1,1,0,0,0,0-2H42a1,1,0,0,0,0,2Z"/><path d="M31,49a1,1,0,0,0,0,2H51a1,1,0,0,0,0-2Z"/><path d="M35,57.477V55a1,1,0,0,0-.629-.929l-5-2a.985.985,0,0,0-.535-.057l-6,1a1,1,0,0,0-.543.279l-2.534,2.534-4.388-1.756a1.012,1.012,0,0,0-.613-.041l-2.117.529.784-3.139L18.048,51H21a1,1,0,0,0,0-2H19.387l.561-1.684a1,1,0,1,0-1.9-.632l-.794,2.379-3.319.3,1.031-4.122A1,1,0,0,0,14.6,44.2L6.834,38.375,4.09,31.057l1.183-2.369.682.682c.139.282.58,1.279,1.948,4.594a1.986,1.986,0,0,0,1.21,1.128l1.747.582a2.01,2.01,0,0,0,2.422-1l.389-.777a2.017,2.017,0,0,0,0-1.789L9.079,22.923l3.128-9.384a.789.789,0,0,1,.493-.5.824.824,0,0,1,.748.125.784.784,0,0,1,.336.812L12.02,22.8a1,1,0,0,0,1.96.392l1.765-8.824a2.8,2.8,0,0,0-1.24-2.9,2.791,2.791,0,0,0-4.194,1.44L7.183,22.29a2.011,2.011,0,0,0,.108,1.528L11.882,33l-.389.777L9.753,33.2c-2.013-4.877-2.095-4.959-2.29-5.154L5.707,26.293a1,1,0,0,0-1.6.26l-2,4a1,1,0,0,0-.042.8l3,8A1,1,0,0,0,5.4,39.8l7.469,5.6-2.427,9.708-3.684.921a1,1,0,0,0-.465.263l-4,4a1,1,0,0,0,1.414,1.414l3.805-3.8,7.417-1.855,4.7,1.881a1,1,0,0,0,1.078-.222l2.773-2.773,5.409-.9L33,55.677V58a1,1,0,0,0,.43.822l4.325,3A1,1,0,0,0,38.9,60.178Z"/><path d="M14.406,24.968a1,1,0,0,0-.232,1.395l3.013,4.218a1,1,0,0,0,1.807-.691l-.889-8a2.833,2.833,0,0,1,.21-1.42l1.856-4.329a.79.79,0,0,1,1.081-.4l.7.349a.792.792,0,0,1,.353,1.061l-1.852,3.7a3,3,0,0,0-.2,2.166l1.786,6.252a1,1,0,0,0,1.857.172l2.086-4.173a2.81,2.81,0,0,1,2.169-1.535l3.962-.5a.784.784,0,0,1,.62.192.775.775,0,0,1,.268.592v.505a.793.793,0,0,1-.636.774l-3.56.713a1,1,0,0,0-.752.664l-.978,2.932-.969,1.937a1,1,0,0,0,1.059,1.433l5.065-.844a2.819,2.819,0,0,1,3.225,2.225l.33,1.654a.785.785,0,0,1-.335.812l-.316.21a.791.791,0,0,1-1.146-.3L32.9,34.553a1,1,0,0,0-1.342-.448l-4,2a1,1,0,0,0-.5.579l-1.588,4.762L23,40.35V38a1,1,0,0,0-2,0v2H19a1,1,0,0,0,0,2h2.788l3.041,1.352-.777,2.332a.979.979,0,0,0-.032.512l.709,3.549a1,1,0,0,0,.98.8,1.026,1.026,0,0,0,.2-.019,1,1,0,0,0,.784-1.177l-.658-3.288,2.785-8.355,2.736-1.367.645,1.292a2.79,2.79,0,0,0,4.043,1.074l.317-.211a2.779,2.779,0,0,0,1.187-2.868l-.33-1.654A4.816,4.816,0,0,0,31.9,30.169l-3.129.522.123-.244a.876.876,0,0,0,.053-.131l.818-2.449,2.99-.6A2.8,2.8,0,0,0,35,24.533v-.505a2.791,2.791,0,0,0-3.136-2.769l-3.962.5a4.81,4.81,0,0,0-3.71,2.625l-.937,1.874-1.08-3.78a1,1,0,0,1,.067-.722l1.852-3.7a2.793,2.793,0,0,0-1.248-3.743l-.7-.35a2.79,2.79,0,0,0-3.813,1.4l-1.855,4.331a4.8,4.8,0,0,0-.361,2.428l.465,4.185L15.8,25.2A1,1,0,0,0,14.406,24.968Z"/></g></g></svg>
