<svg id="Capa_1" enable-background="new 0 0 494.986 494.986" height="512" viewBox="0 0 494.986 494.986" width="512" xmlns="http://www.w3.org/2000/svg"><g><path d="m448.187 247.493c.013 28.973-7.837 57.407-22.713 82.269-15.103 25.171-36.808 45.729-62.762 59.443-2.284 1.204-4.607 2.362-6.969 3.442-11.179 5.272-22.944 9.198-35.048 11.694-.195.073-.397.128-.602.163-10.26 2.066-20.696 3.139-31.162 3.206h-.939c-9.385.002-18.752-.815-27.995-2.441-2.081-.36-4.084-.759-6.131-1.204-86.474-18.862-141.285-104.254-122.424-190.728 12.54-57.492 55.58-103.488 112.113-119.814 1.204-.36 2.441-.681 3.684-1.001 28.439-7.456 58.38-6.958 86.555 1.44 1.243.321 2.481.72 3.724 1.125 65.991 21.491 110.659 83.004 110.669 152.406z" fill="#f6c863"/><g fill="#eab54e"><circle cx="371.054" cy="190.417" r="27.05"/><circle cx="198.855" cy="183.409" r="26.037"/><circle cx="183.173" cy="272.737" r="20.024"/><circle cx="277.209" cy="265.993" r="13.286"/><circle cx="274.683" cy="183.409" r="13.286"/><circle cx="356.227" cy="276.534" r="13.286"/><circle cx="230.146" cy="330.819" r="13.286"/><path d="m445.341 277.614c-3.496 18.418-10.222 36.073-19.867 52.148-13.93-6.731-19.766-23.479-13.035-37.409 4.68-9.686 14.494-15.837 25.252-15.825 2.589-.007 5.165.358 7.65 1.086z"/><path d="m356.986 381.274c.013 3.826-.404 7.641-1.243 11.373-11.179 5.272-22.944 9.198-35.048 11.694-.195.073-.397.128-.602.163-10.26 2.066-20.696 3.139-31.162 3.206h-.939c-9.385.002-18.752-.815-27.995-2.441-3.943-7.38-5.994-15.623-5.968-23.99-.014-28.437 23.028-51.501 51.465-51.514s51.501 23.028 51.514 51.465v.049z"/><path d="m333.834 94.891c0 23.936-19.404 43.339-43.339 43.339-23.936 0-43.339-19.404-43.339-43.339 0-.799.039-1.603.079-2.362 28.439-7.456 58.38-6.958 86.555 1.44.035.306.05.614.044.922z"/></g><path d="m390.87 373.708s-47.586-34.531-90.504 6.429c-2.576 2.475-5.017 5.087-7.312 7.824-1.575-2.121-3.287-4.137-5.124-6.035-14.176-15.84-33.607-26.012-54.702-28.636-8.283-.792-16.639-.247-24.749 1.614v.056c-1.041.203-2.182.489-3.268.799-25.546 6.18-46.618 24.162-56.738 48.419 10.184-24.234 8.237-51.866-5.242-74.433-.624-1.091-1.254-2.182-1.873-3.144l-.034-.079c-4.331-7.034-9.775-13.318-16.121-18.607-16.735-13.086-37.609-19.736-58.83-18.742-2.634.034-5.263.222-7.875.563.329-3.567.466-7.15.411-10.732-.973-59.281-58.909-68.933-58.909-68.933l118.532-26.06 11.3-2.475.776-.186c-.609 2.542-1.069 5.116-1.378 7.712v.056c-1.815 12.401-1.028 25.044 2.312 37.124 5.07 17.76 17.992 32.221 35.071 39.25l17.465-41.719c5.321 24.253 29.297 39.601 53.55 34.28 5.076-1.114 9.921-3.099 14.319-5.868l-17.465 41.719c17.027 7.276 36.456 6.309 52.677-2.621 10.881-6.106 20.384-14.392 27.916-24.339v-.056c1.623-2.043 3.125-4.178 4.5-6.395l.416.686 6.187 9.787z" fill="#575b6d"/><path d="m300.366 380.138c-2.576 2.475-5.017 5.087-7.312 7.824-1.575-2.121-3.287-4.137-5.124-6.035l25.199-106.636 1.969-8.358v-.056c1.623-2.043 3.125-4.178 4.5-6.395l.416.686 6.187 9.787z" fill="#4d5160"/><path d="m313.101 275.285c-10.907 18.894-33.535 47.361-79.873 78-8.283-.792-16.639-.247-24.749 1.614 29.633-16.643 56.254-38.155 78.748-63.634 10.881-6.106 20.384-14.392 27.916-24.339v-.056c1.623-2.043 3.125-4.178 4.5-6.395l.416.686c-1.928 4.891-4.255 9.615-6.958 14.124z" fill="#4d5160"/><path d="m215.728 277.349.005.002c1.87.783 2.752 2.934 1.969 4.804l-3.124 7.463c-.783 1.87-2.934 2.752-4.804 1.969l-.005-.002c-1.87-.783-2.752-2.934-1.969-4.804l3.124-7.463c.783-1.871 2.934-2.752 4.804-1.969z" fill="#414451"/><path d="m185.387 281.571-.005-.002c-1.871-.783-2.753-2.935-1.97-4.807l3.126-7.466c.783-1.871 2.935-2.753 4.807-1.97l.005.002c1.871.783 2.753 2.935 1.97 4.807l-3.126 7.466c-.784 1.872-2.936 2.754-4.807 1.97z" fill="#414451"/><path d="m129.231 189.068v.056l-4.573 7.267-58.285 92.782c-2.634.034-5.263.222-7.875.563.329-3.567.466-7.15.411-10.732l59.623-94.992 11.3-2.475.776-.186c-.609 2.543-1.069 5.119-1.377 7.717z" fill="#4d5160"/><path d="m141.245 326.522c-4.331-7.034-9.775-13.318-16.121-18.607-10.62-54.432-6.277-90.56-.489-111.529 1.351-5.075 3.088-10.04 5.197-14.85l.776-.186c-.609 2.542-1.069 5.116-1.378 7.712v.056c-1.815 12.401-1.028 25.044 2.312 37.124-2.389 33.734.891 67.63 9.703 100.28z" fill="#4d5160"/><path d="m301.221 197.499s23.591-17.111 44.858 3.189c1.284 1.225 2.5 2.519 3.645 3.876.781-1.052 1.631-2.051 2.542-2.992 7.027-7.853 16.66-12.896 27.117-14.197 4.111-.395 8.259-.125 12.285.799.517.101 1.08.242 1.62.394 12.663 3.064 23.108 11.977 28.124 24.001-5.049-12.013-4.085-25.712 2.599-36.899.309-.562.624-1.08.928-1.558v-.039c2.147-3.487 4.847-6.603 7.993-9.225 8.289-6.482 18.626-9.779 29.137-9.292 1.317.018 2.632.114 3.937.287-.163-1.769-.231-3.545-.203-5.321.461-29.356 29.182-34.143 29.182-34.143l-58.757-12.937-5.625-1.226-.388-.09c.303 1.261.532 2.538.686 3.825.906 6.145.523 12.41-1.125 18.399-2.517 8.803-8.924 15.969-17.392 19.451l-8.651-20.615c-2.655 12.018-14.549 19.609-26.568 16.955-2.499-.552-4.885-1.531-7.052-2.893l8.657 20.683c-8.442 3.607-18.074 3.128-26.116-1.299-5.393-3.027-10.104-7.135-13.837-12.065-.811-1.011-1.562-2.068-2.25-3.167l-.208.337-3.06 4.854z" fill="#575b6d"/><path d="m346.079 200.683c1.284 1.225 2.5 2.519 3.645 3.876.781-1.052 1.631-2.051 2.542-2.992l-12.493-52.873-.973-4.146c-.811-1.011-1.562-2.068-2.25-3.167l-.208.337-3.06 4.854z" fill="#4d5160"/><path d="m339.774 148.709c10.043 15.772 23.6 29.006 39.61 38.665 4.111-.395 8.259-.125 12.285.799-14.687-8.251-27.882-18.915-39.031-31.544-5.393-3.027-10.104-7.135-13.837-12.065-.811-1.011-1.562-2.068-2.25-3.167l-.208.337c.951 2.415 2.098 4.748 3.431 6.975z" fill="#4d5160"/><path d="m390.964 156.896c-.928.389-1.996-.049-2.385-.977l-1.549-3.699c-.389-.928.049-1.996.977-2.385.928-.389 1.996.049 2.385.977l1.549 3.699c.389.929-.048 1.996-.977 2.385z" fill="#414451"/><path d="m400.132 144.768c.928-.389 1.996.049 2.385.977l1.549 3.699c.389.928-.049 1.996-.977 2.385-.928.389-1.996-.049-2.385-.977l-1.549-3.699c-.389-.928.049-1.996.977-2.385z" fill="#414451"/><path d="m430.924 105.966 2.25 3.6 28.895 45.994c1.317.018 2.632.114 3.937.287-.163-1.769-.231-3.545-.203-5.321l-29.581-47.102-5.625-1.226-.388-.09c.315 1.271.553 2.559.715 3.858z" fill="#4d5160"/><path d="m424.968 174.105c2.147-3.487 4.847-6.603 7.993-9.225 4.322-18.166 4.405-37.083.242-55.287-.669-2.516-1.531-4.978-2.576-7.363l-.388-.09c.303 1.261.532 2.538.686 3.825.906 6.145.523 12.41-1.125 18.399 1.18 16.735-.453 33.548-4.832 49.741z" fill="#4d5160"/></g></svg>