<svg id="Capa_1" enable-background="new 0 0 461.237 461.237" height="512" viewBox="0 0 461.237 461.237" width="512" xmlns="http://www.w3.org/2000/svg"><g><g fill="#f6b863"><path d="m51.507 228.25-9.242-10.091 27.415-25.109-7.931-28.861 12.831-4.939 10.513 38.238z"/><path d="m431.74 319.558h-37.45l-21.206-29.553 12.971-9.309 16.425 22.899h29.26z"/><path d="m416.632 461.237h-375.739v-.562c-.025-21.721 17.563-39.349 39.284-39.374h.073 22.803v-265.082l-38.767-147.669h78.112l38.198 115.197 31.927-123.747h47.907l6.84 124.871h15.378l70.125-116.89 47.89.562-47.316 116.89v296.463h23.945c21.721-.006 39.334 17.597 39.34 39.318z"/><path d="m455.398 234.325v31.359h-46.748l-17.971 21.436-10.609 12.633-13.336 15.919-2.83 3.374-10.557 12.589-6.846 8.161-5.13-77.538 11.976-6.587 10.557-5.816 2.83-1.552 25.379-13.978 15.963-78.68h31.927l-16.531 78.68z"/></g><path d="m228.487 360.04-39.054-31.645-38.772 15.108-15.963-70.125 38.485 31.072 24.468-31.072 30.836 30.785 30.835-30.785 24.468 31.072 38.485-31.072-15.963 70.125-38.772-15.108z" fill="#ef5261"/><path d="m322.264 273.367-6.502 28.552-32.36 26.088-24.086-31.151-30.554 26.797-31.111-26.797-24.08 31.151-32.382-26.111-6.48-28.529 38.474 31.083 24.468-31.083 30.836 30.785 30.829-30.785 24.474 31.083z" fill="#da364c"/><path d="m251.863 226.057 38.767-38.486 15.395 46.76z" fill="#ef5261"/><path d="m306.025 234.325-18.472-2.829-10.788-30.149 13.865-13.776z" fill="#da364c"/><path d="m205.11 226.057-38.767-38.486-15.395 46.76z" fill="#ef5261"/><path d="m150.948 234.325 18.472-2.829 10.789-30.149-13.866-13.776z" fill="#da364c"/><path d="m113.025 282.783v67.577l-9.967-9.079-19.383-17.673-37.928-34.553h-39.908v-31.061h31.06l-31.06-70.423 23.376-15.687 18.95 40.864 6.042 13.05 14.917 32.196 14.551 8.213 19.383 10.946z" fill="#f6b863"/><path d="m366.734 248.303v67.369l-2.83 3.374-10.557 12.589v-75.964l10.557-5.816z" fill="#eaa14e"/><path d="m103.058 277.153v64.128l-15.682-15.395v-57.401z" fill="#eaa14e"/></g></svg>